<svg width="35" height="36" viewBox="0 0 35 36" fill="none" xmlns="http://www.w3.org/2000/svg">
<path d="M29.2195 11.4479H24.8978V7.1262C24.8978 6.5531 24.6701 6.00348 24.2649 5.59824C23.8596 5.19299 23.31 4.96533 22.7369 4.96533H5.44993C4.87683 4.96533 4.32721 5.19299 3.92197 5.59824C3.51672 6.00348 3.28906 6.5531 3.28906 7.1262V24.4132C3.2897 24.6164 3.34766 24.8154 3.45629 24.9872C3.56492 25.159 3.71981 25.2967 3.90317 25.3844C4.08653 25.4721 4.29092 25.5064 4.49286 25.4832C4.6948 25.4599 4.88609 25.3802 5.04477 25.2532L9.77167 21.442V25.4936C9.77167 26.0667 9.99933 26.6163 10.4046 27.0216C10.8098 27.4268 11.3594 27.6545 11.9325 27.6545H24.5723L29.6247 31.7358C29.8158 31.8904 30.054 31.9752 30.2999 31.9762C30.5865 31.9762 30.8613 31.8624 31.0639 31.6597C31.2665 31.4571 31.3804 31.1823 31.3804 30.8958V13.6088C31.3804 13.0357 31.1527 12.4861 30.7475 12.0808C30.3422 11.6756 29.7926 11.4479 29.2195 11.4479ZM9.03562 19.2514L5.44993 22.151V7.1262H22.7369V19.011H9.71495C9.46767 19.011 9.22788 19.0959 9.03562 19.2514ZM29.2195 28.6336L25.6338 25.734C25.4426 25.5794 25.2044 25.4946 24.9585 25.4936H11.9325V21.1719H22.7369C23.31 21.1719 23.8596 20.9442 24.2649 20.5389C24.6701 20.1337 24.8978 19.5841 24.8978 19.011V13.6088H29.2195V28.6336Z" fill="#0078D4"/>
</svg>
